inDegrees=yes
name=ik_data_2024_11_07_18_52
DataType=double
version=3
OpenSimVersion=4.5.1
endheader
time	pelvis_tilt	pelvis_list	pelvis_rotation	pelvis_tx	pelvis_ty	pelvis_tz	hip_flexion_r	hip_adduction_r	hip_rotation_r	knee_angle_r	knee_angle_r_beta	ankle_angle_r	subtalar_angle_r	mtp_angle_r	hip_flexion_l	hip_adduction_l	hip_rotation_l	knee_angle_l	knee_angle_l_beta	ankle_angle_l	subtalar_angle_l	mtp_angle_l	lumbar_extension	lumbar_bending	lumbar_rotation	arm_flex_r	arm_add_r	arm_rot_r	elbow_flex_r	pro_sup_r	wrist_flex_r	wrist_dev_r	arm_flex_l	arm_add_l	arm_rot_l	elbow_flex_l	pro_sup_l	wrist_flex_l	wrist_dev_l
15.03922	4.44658540611153	0.6673962185639704	-12.2805237480404	0	0.9399999999999999	0	5.292732402011911	-2.226450081189183	-3.959096241782504	13.09228124374468	0.228503414300443	-5.044657588416007	0	0	-3.94153395351462	1.604854475499158	2.491874409727605	0.5178835465251719	0.009038773028769488	-5.044657588416007	0	0	0	0	0	0	-10.61257919715946	0	74.72640216881463	45.08719977110755	0	0	0	-10.61257919715946	0	74.72640216881463	45.08719977110755	0	0
15.09656	4.585051454007032	0.7833032848817749	-11.76425166497653	0	0.9399999999999999	0	4.876390383232205	-1.915396802297805	-4.545699096594157	12.50118407709085	0.218186822543124	-5.044563536435119	0	0	-4.056283900786243	1.701976450141642	3.017581618672626	0.5168511037185207	0.009020753502454893	-5.044563536435119	0	0	0	0	0	0	-10.61362228914526	0	74.72652900405781	45.08708828771401	0	0	0	-10.61362228914526	0	74.72652900405781	45.08708828771401	0	0
15.14909	4.671308287966458	0.8410530301157241	-11.52692504555582	0	0.9399999999999999	0	4.723234726623086	-1.473845505425238	-4.861973570390631	11.98026613242629	0.2090950892760057	-5.044473917583069	0	0	-4.141253950956211	1.756737841740817	3.261072542542668	0.5142180081983947	0.008974797316109182	-5.044473917583069	0	0	0	0	0	0	-10.61461286112513	0	74.72664961806326	45.08698209923804	0	0	0	-10.61461286112513	0	74.72664961806326	45.08698209923804	0	0
15.21385	4.80996837862718	0.857071928184175	-11.45494561608794	0	0.9399999999999999	0	4.631461234828345	-1.037621236469931	-4.99668749653966	11.5231462619081	0.2011168424591731	-5.04437758156139	0	0	-4.277749777529649	1.794647866274715	3.33570145066387	0.5142351925685126	0.00897509723994762	-5.04437758156139	0	0	0	0	0	0	-10.61567819461805	0	74.72677935828418	45.08686789523804	0	0	0	-10.61567819461805	0	74.72677935828418	45.08686789523804	0	0
15.2206	4.794485712748283	0.949652527526315	-11.15236219379546	0	0.9399999999999999	0	4.712311180011234	-0.701506341171481	-5.344428053290033	11.13885522708222	0.1944096986155655	-5.044315270776784	0	0	-4.254062121628937	1.857320483426467	3.647042224590969	0.5035662656107378	0.008788889336879669	-5.044315270776784	0	0	0	0	0	0	-10.61637168499924	0	74.72686367687803	45.08679389175361	0	0	0	-10.61637168499924	0	74.72686367687803	45.08679389175361	0	0
15.28122	4.822756867142447	1.015701345140147	-10.87993035552464	0	0.9399999999999999	0	4.617247793685601	-0.4123141579974516	-5.651539496674403	10.72492876091763	0.1871853189198485	-5.044243289157068	0	0	-4.278513424258239	1.907409623470636	3.925188924530136	0.5132760726057805	0.00895835743867634	-5.044243289157068	0	0	0	0	0	0	-10.61717409616816	0	74.72696121948481	45.08670834267392	0	0	0	-10.61717409616816	0	74.72696121948481	45.08670834267392	0	0
15.33474	4.827885511957783	1.063384352091391	-10.69525150971606	0	0.9399999999999999	0	4.582229957555688	-0.07522542763963282	-5.854860002687578	10.27762314997731	0.179378363246295	-5.044180168188791	0	0	-4.28051801052799	1.940261118334383	4.110711438210056	0.5030458156280414	0.008779805771089669	-5.044180168188791	0	0	0	0	0	0	-10.61787784968828	0	74.72704678783431	45.08663329833805	0	0	0	-10.61787784968828	0	74.72704678783431	45.08663329833805	0	0
15.39862	4.868841571426807	1.020505880720944	-10.88194396513765	0	0.9399999999999999	0	4.499022179091402	0.1536867124617638	-5.704317366489079	10.12898974366031	0.1767842209276088	-5.044129962289149	0	0	-4.326426630888055	1.926896905611996	3.927323882097058	0.5106524775337209	0.008912567066429802	-5.044129962289149	0	0	0	0	0	0	-10.61844318567304	0	74.72711535685734	45.08657343872235	0	0	0	-10.61844318567304	0	74.72711535685734	45.08657343872235	0	0
15.401	5.117715924691414	1.11014714002589	-10.52992738174104	0	0.9399999999999999	0	4.152847880405947	0.08619162017626306	-6.052089964823057	9.985744416363298	0.1742841183281791	-5.0440623052205	0	0	-4.554829490154549	2.036383371494471	4.284451476383625	0.5311440499784106	0.009270212474500581	-5.0440623052205	0	0	0	0	0	0	-10.61921772033257	0	74.72720883668244	45.08649245671704	0	0	0	-10.61921772033257	0	74.72720883668244	45.08649245671704	0	0
15.45624	5.317551955550122	1.122140534848376	-10.54569680675605	0	0.9399999999999999	0	4.040188541550135	0.2078406570415599	-6.075296242211304	10.00261348935015	0.1745785391935588	-5.044028094761669	0	0	-4.736110441545291	2.089136346974541	4.275509182348076	0.5417254939202283	0.009454893510900507	-5.044028094761669	0	0	0	0	0	0	-10.61960692019992	0	74.72725589046837	45.0864515732105	0	0	0	-10.61960692019992	0	74.72725589046837	45.0864515732105	0	0
15.51173	5.465948437582919	1.143723000491583	-10.37531987229119	0	0.9399999999999999	0	4.033387913974401	0.2119386027627154	-6.241689342576113	9.906505627080151	0.1729011405598941	-5.04395257313212	0	0	-4.907623026760768	2.114275327001128	4.458534570035136	0.513930771254179	0.008969784085699251	-5.04395257313212	0	0	0	0	0	0	-10.62045486125234	0	74.72735883689776	45.08636157097767	0	0	0	-10.62045486125234	0	74.72735883689776	45.08636157097767	0	0
15.57914	5.571029830092822	1.101832738514892	-10.57688156398514	0	0.9399999999999999	0	4.01359160030241	0.3954499710983512	-6.076525217912535	9.872057816446958	0.1722999128442414	-5.043909459078225	0	0	-5.011828350143587	2.114993316663233	4.261157804030364	0.5177076197120534	0.00903570252663803	-5.043909459078225	0	0	0	0	0	0	-10.62094437862476	0	74.72741809696545	45.08631003039365	0	0	0	-10.62094437862476	0	74.72741809696545	45.08631003039365	0	0
15.58256	5.562722182818794	1.164337300540771	-10.31251085585067	0	0.9399999999999999	0	4.054769350894833	0.354804432570218	-6.300626015475776	9.667453810214056	0.1687288992727063	-5.043856470437773	0	0	-4.996061467926772	2.145576877526372	4.525233612808617	0.5191032580750965	0.009060061011240276	-5.043856470437773	0	0	0	0	0	0	-10.62154878011703	0	74.72749119603249	45.08624658801191	0	0	0	-10.62154878011703	0	74.72749119603249	45.08624658801191	0	0
15.6292	5.61205894861099	1.33368706375714	-9.66553960201847	0	0.9399999999999999	0	4.05716971471173	0.2109192062985304	-6.960507029721335	9.683926647542053	0.1690164045212253	-5.043792077316981	0	0	-5.035437163167297	2.266304783642572	5.18409412236746	0.5302599720436121	0.009254782403694116	-5.043792077316981	0	0	0	0	0	0	-10.62229550188979	0	74.72758104420289	45.0861692061919	0	-2.130770465994572e-35	0	-10.62229550188979	0	74.72758104420289	45.0861692061919	0	-2.130770465994572e-35
15.69652	5.624850718929307	1.380292878264558	-9.443132184901611	0	0.9399999999999999	0	4.090806579976204	0.09462168312814385	-7.199517276068787	9.873665637948415	0.1723279746232262	-5.043728079890467	0	0	-5.054842919728888	2.294246427241844	5.414238541158627	0.5245283771266324	0.009154747201002249	-5.043728079890467	0	0	0	0	0	0	-10.62303231440672	0	74.72766995385263	45.08609237242803	0	0	0	-10.62303231440672	0	74.72766995385263	45.08609237242803	0	0
15.75952	5.685778229754884	1.284037700204707	-9.837906009780268	0	0.9399999999999999	0	4.103571288684671	0.2430839616733743	-6.791841180278639	9.755916141876462	0.1702728582242065	-5.043674078482684	0	0	-5.123810364895485	2.241153418723036	5.012304468979157	0.5105855266335433	0.008911398552784529	-5.043674078482684	0	0	0	0	0	0	-10.62365517396412	0	74.72774506626526	45.0860275142345	0	0	0	-10.62365517396412	0	74.72774506626526	45.0860275142345	0	0
15.76172	5.574383757571725	1.381690809440864	-9.483333255521647	0	0.9399999999999999	0	4.362842465826111	0.3031378389213587	-7.141044819541639	9.662903348455563	0.1686494787325345	-5.043619586121086	0	0	-5.01458154423204	2.288748070028435	5.36697877466823	0.5065498258665387	0.008840962286775039	-5.043619586121086	0	0	0	0	0	0	-10.62427676524496	0	74.72782028463811	45.08596222494381	0	0	0	-10.62427676524496	0	74.72782028463811	45.08596222494381	0	0
15.8118	5.563849089458423	1.49462720720244	-9.013403504150769	0	0.9399999999999999	0	4.475085884189131	0.1440036383674761	-7.634906991602001	9.825844949629671	0.1714933461614941	-5.043554979803184	0	0	-4.997385159209397	2.354184201753403	5.847825829649884	0.5279872479578329	0.009215115885407891	-5.043554979803184	0	0	0	0	0	0	-10.62503011133892	0	74.7279109035909	45.08588436986772	0	0	0	-10.62503011133892	0	74.7279109035909	45.08588436986772	0	0
15.88145	5.674621979520579	1.425703317929583	-9.294655528412662	0	0.9399999999999999	0	4.515597572155237	0.3475401107214052	-7.377345710228779	9.824059365118895	0.1714621818327085	-5.043498305422967	0	0	-5.10781318182638	2.328485225325163	5.571204348520939	0.5056475880250728	0.008825215265805372	-5.043498305422967	0	0	0	0	0	0	-10.62567654461885	0	74.72798915486318	45.08581644052492	0	0	0	-10.62567654461885	0	74.72798915486318	45.08581644052492	0	0
15.93873	5.589569044864595	1.236279247812282	-10.02879082916086	0	0.9399999999999999	0	5.059511348699526	0.7671349972522175	-6.6548141076225	9.720932651067548	0.1696622811257498	-5.043434162610267	0	0	-5.045439135982563	2.192387224356378	4.824231323559028	0.4823008130646809	0.008417737173024364	-5.043434162610267	0	0	0	0	0	0	-10.62640859325646	0	74.72807777062701	45.08573953199953	0	0	0	-10.62640859325646	0	74.72807777062701	45.08573953199953	0	0
15.94078	5.393937083908693	1.042954288066187	-10.77407336366693	0	0.9399999999999999	0	5.721924155333638	1.192893608089167	-5.921149079172038	9.592079920866242	0.1674133767335531	-5.043368027874946	0	0	-4.85979267698143	2.030398268601164	4.058301328058189	0.4822382018795804	0.008416644401695785	-5.043368027874946	0	0	0	0	0	0	-10.6271635777133	0	74.72816918450272	45.08566020179398	0	0	0	-10.6271635777133	0	74.72816918450272	45.08566020179398	0	0
15.99596	5.168501173331441	0.9585250228135511	-11.03849642758167	0	0.9399999999999999	0	6.149352588576339	1.494675621829644	-5.814074326562151	10.25546455558645	0.1789916228165606	-5.043289406535012	0	0	-4.629551038889567	1.927856939234984	3.767479867558564	0.5097708956118218	0.008897180559266603	-5.043289406535012	0	0	0	0	0	0	-10.62806477476833	0	74.72827822628531	45.08556575050967	0	0	0	-10.62806477476833	0	74.72827822628531	45.08556575050967	0	0
16.05986	4.916843973041761	1.044203772118194	-10.77315389312385	0	0.9399999999999999	0	6.961335897539773	1.362421450906137	-6.031402735531905	10.23650537102327	0.1786607226224398	-5.043228344724169	0	0	-4.383605554517109	1.945644985092174	4.036198018361799	0.4767571859297534	0.008320982627016979	-5.043228344724169	0	0	0	0	0	0	-10.62875716514415	0	74.72836228648552	45.0854925656297	0	0	0	-10.62875716514415	0	74.72836228648552	45.0854925656297	0	0
16.11241	4.693604658422101	1.286277017570219	-9.805288167319887	0	0.9399999999999999	0	8.27186538777484	0.9049066041171326	-6.928091370480316	10.36323030202452	0.1808724899127742	-5.043154075194232	0	0	-4.149813866501675	2.07573168646158	5.01953879466785	0.4904716057760071	0.008560344408334962	-5.043154075194232	0	0	0	0	0	0	-10.62960474651139	0	74.72846499966332	45.08540340476844	0	0	0	-10.62960474651139	0	74.72846499966332	45.08540340476844	0	0
16.12206	4.519238231935805	1.518908021653449	-8.89655542555103	0	0.9399999999999999	0	9.923376979973861	0.2245865829730972	-7.902845870097571	11.62592179137157	0.2029106138387912	-5.043036575791354	0	0	-3.974991568996715	2.21429706978166	5.931183595576679	0.506950865483811	0.008847961748527377	-5.043036575791354	0	0	0	0	0	0	-10.63094710159646	0	74.72862768421429	45.08526224697092	0	0	0	-10.63094710159646	0	74.72862768421429	45.08526224697092	0	0
16.17774	4.734389588132631	1.167085940552377	-10.27507263378175	0	0.9399999999999999	0	11.28228028746342	0.6544660508957807	-6.797569956686732	13.27151951775782	0.2316317123275639	-5.042902534504932	0	0	-4.190107470489227	1.99958086218646	4.535778015888968	0.5070002143599651	0.008848823048898426	-5.042902534504932	0	0	0	0	0	0	-10.63248575336352	0	74.72881397577503	45.08510095169324	0	0	0	-10.63248575336352	0	74.72881397577503	45.08510095169324	0	0
